<?xml version="1.0" standalone="no"?>
<!DOCTYPE svg PUBLIC "-//W3C//DTD SVG 20010904//EN"
 "http://www.w3.org/TR/2001/REC-SVG-20010904/DTD/svg10.dtd">
<svg version="1.0" xmlns="http://www.w3.org/2000/svg"
 width="159.000000pt" height="159.000000pt" viewBox="0 0 159.000000 159.000000"
 preserveAspectRatio="xMidYMid meet">
<metadata>
Created by potrace 1.11, written by Peter Selinger 2001-2013
</metadata>
<g transform="translate(0.000000,159.000000) scale(0.100000,-0.100000)"
fill="#000000" stroke="none">
<path d="M690 1436 c-5 -14 -17 -30 -27 -36 -13 -8 -14 -13 -5 -16 20 -9 14
-34 -9 -34 -11 0 -18 -4 -15 -9 3 -5 -1 -14 -9 -21 -10 -8 -12 -17 -6 -24 11
-13 -4 -45 -15 -33 -9 9 -34 -39 -36 -70 -1 -12 -6 -23 -10 -23 -4 0 -8 -11
-8 -25 0 -15 -6 -25 -14 -25 -8 0 -17 -15 -20 -35 -4 -19 -10 -35 -14 -35 -7
0 -33 -53 -33 -67 0 -4 -6 -15 -14 -23 -7 -8 -15 -24 -17 -35 -1 -11 -11 -29
-20 -39 -10 -10 -15 -23 -12 -27 2 -4 -5 -17 -18 -28 -12 -12 -18 -24 -15 -28
4 -3 1 -13 -6 -22 -7 -9 -22 -36 -32 -61 -10 -25 -24 -49 -30 -55 -7 -5 -10
-15 -8 -22 5 -13 -20 -64 -45 -94 -9 -11 -15 -21 -12 -23 3 -2 -3 -13 -13 -24
-10 -11 -17 -26 -16 -34 2 -7 -10 -33 -26 -58 -16 -25 -29 -48 -30 -52 0 -3
-3 -10 -7 -14 -5 -4 -8 -15 -8 -25 0 -9 -7 -19 -15 -23 -8 -3 -15 -17 -15 -31
0 -15 -4 -24 -9 -20 -5 3 -11 -5 -13 -17 -2 -15 -11 -24 -25 -26 -13 -2 -23
-8 -23 -13 0 -6 -4 -7 -10 -4 -6 3 -15 3 -21 -1 -20 -12 31 -43 55 -34 12 4
26 9 31 10 6 1 16 5 24 8 7 3 17 -1 22 -9 5 -8 9 -9 9 -3 0 7 11 9 27 6 21 -4
25 -2 20 11 -5 14 -3 15 13 4 16 -9 24 -9 40 1 11 6 37 12 58 12 21 0 43 5 48
10 6 6 48 12 95 14 46 3 93 7 104 10 11 2 26 5 33 5 8 1 10 6 6 14 -6 9 -4 9
7 1 8 -6 28 -9 44 -7 17 2 46 5 65 7 19 2 35 5 35 6 0 1 18 4 40 6 52 5 90 11
90 14 0 1 18 3 40 4 22 2 40 4 40 5 0 6 50 12 135 14 53 2 101 6 107 10 7 4
14 3 18 -3 4 -6 10 -8 14 -6 11 7 73 19 96 18 10 -1 26 4 35 11 8 6 12 7 8 3
-10 -12 29 -39 42 -31 6 3 10 1 10 -4 0 -6 7 -11 16 -11 10 0 14 -6 10 -15 -3
-10 1 -15 14 -15 10 0 22 -5 25 -10 4 -6 12 -7 18 -3 7 4 6 0 -2 -10 -12 -15
-11 -17 5 -17 11 0 24 -12 32 -29 18 -40 45 -50 36 -13 -4 15 -11 28 -15 30
-4 2 -5 10 -2 18 3 8 -3 17 -13 21 -25 9 -45 29 -37 37 8 8 -18 37 -28 30 -5
-3 -6 2 -3 10 4 9 -1 18 -10 22 -9 3 -13 10 -10 15 3 5 -12 26 -32 47 -21 20
-37 40 -37 43 1 4 -12 22 -30 40 -17 19 -32 39 -32 45 0 7 -19 33 -43 58 -24
25 -39 46 -35 46 4 0 3 4 -4 8 -6 4 -13 14 -15 22 -2 8 -12 24 -23 36 -58 62
-83 92 -79 97 2 2 -2 10 -11 17 -8 7 -15 18 -15 24 0 7 -20 32 -45 56 -24 24
-42 47 -39 51 2 4 0 10 -6 14 -6 4 -8 11 -5 16 4 5 -5 19 -18 31 -13 13 -26
31 -30 41 -4 11 -12 15 -18 11 -7 -4 -9 -3 -6 3 4 6 0 16 -8 23 -8 7 -12 16
-9 21 3 5 -8 23 -25 38 -21 20 -27 31 -19 34 7 3 3 6 -9 6 -17 1 -20 6 -15 23
4 16 2 19 -8 13 -9 -5 -11 -4 -6 4 5 7 -1 20 -13 30 -12 10 -21 25 -21 34 0 9
-8 22 -18 29 -19 14 -44 62 -48 91 -1 9 -3 20 -4 25 -1 4 -2 10 -2 14 1 3 -5
9 -14 12 -9 4 -18 -3 -24 -18z m-8 -313 c9 -8 14 -21 11 -29 -4 -10 0 -12 11
-8 12 5 19 0 23 -16 4 -16 8 -18 14 -8 7 10 9 9 9 -4 0 -10 9 -22 20 -28 11
-6 20 -15 20 -21 0 -16 27 -39 35 -31 5 4 5 -3 2 -16 -3 -12 -2 -20 3 -17 4 2
15 -4 25 -15 10 -11 15 -20 10 -20 -4 0 -2 -7 5 -15 8 -10 21 -13 33 -9 15 5
17 3 11 -7 -5 -8 -9 -23 -11 -34 -1 -11 1 -14 4 -7 4 10 8 10 19 1 8 -6 11
-15 9 -20 -3 -4 4 -13 15 -19 11 -6 18 -15 15 -21 -4 -5 -3 -9 2 -9 16 0 63
-48 63 -64 0 -9 5 -16 10 -16 9 0 53 -39 56 -50 9 -32 18 -50 25 -50 4 0 22
-14 39 -30 30 -29 32 -57 4 -46 -8 3 -14 -1 -14 -9 0 -16 -43 -31 -59 -21 -5
3 -11 1 -13 -4 -2 -6 -12 -12 -21 -14 -10 -1 -22 -7 -25 -12 -4 -5 -18 -10
-32 -10 -20 -1 -60 -8 -77 -13 -2 -1 -6 -2 -10 -3 -5 -1 -24 -5 -43 -10 -19
-4 -51 -11 -70 -14 -19 -3 -36 -10 -38 -14 -2 -5 -15 -6 -28 -4 -16 3 -23 1
-19 -6 6 -9 1 -11 -42 -14 -10 0 -24 -6 -31 -13 -7 -7 -19 -10 -27 -6 -9 3
-21 1 -28 -5 -6 -6 -28 -13 -47 -15 -19 -3 -35 -6 -35 -7 0 -2 -38 -11 -60
-13 -11 -1 -23 -6 -26 -10 -3 -5 -18 -10 -33 -11 -25 -3 -27 -1 -20 23 3 14 7
40 8 58 1 17 10 41 20 52 10 11 15 25 11 30 -3 6 -2 11 4 11 6 0 8 7 5 15 -4
8 1 17 9 21 9 3 13 12 10 20 -3 8 0 14 7 14 6 0 8 4 5 10 -3 5 -1 19 5 30 12
22 20 52 24 85 2 25 27 75 37 75 4 0 5 9 2 21 -4 12 0 25 8 30 8 4 15 21 15
36 1 15 10 51 21 78 11 28 19 59 17 68 -1 9 2 17 7 17 6 0 7 5 4 10 -4 6 -1
17 5 25 7 8 10 24 7 35 -3 11 -1 18 4 14 8 -4 14 17 10 39 0 4 4 7 9 7 14 0
12 27 -2 34 -7 3 1 3 17 0 17 -3 38 -12 47 -21z"/>
</g>
</svg>
