<svg xmlns="http://www.w3.org/2000/svg" viewBox="0 0 82 38"><defs><style>.cls-1{fill:#fff;}</style></defs><title>ic-jpg-white</title><g id="Слой_2" data-name="Слой 2"><g id="Layer_1" data-name="Layer 1"><path class="cls-1" d="M77,0H5A5,5,0,0,0,0,5V33a5,5,0,0,0,5,5H77a5,5,0,0,0,5-5V5A5,5,0,0,0,77,0ZM29,21.82c0,2.12-.38,3.7-1.47,4.76a5.62,5.62,0,0,1-4.12,1.58,7.46,7.46,0,0,1-5.55-2.47l2.08-2.85a4.63,4.63,0,0,0,3.37,1.73,1.57,1.57,0,0,0,1.27-.65A2.79,2.79,0,0,0,25,22V14H20V10h9Zm15.23-.33C43,22.51,41,23,38.37,23H36v5H32V10h6.32c2.73,0,4.72.64,6,1.7a6.16,6.16,0,0,1,1.87,4.93A5.88,5.88,0,0,1,44.23,21.49ZM63,25.25c-1,2-4.07,3-7.19,3a8.89,8.89,0,0,1-6.51-2.59,8.74,8.74,0,0,1-2.62-6.55,8.86,8.86,0,0,1,2.73-6.6A9,9,0,0,1,56,9.81a9.68,9.68,0,0,1,6.66,2.52l-2.06,3a7.88,7.88,0,0,0-2.2-1.44,5.9,5.9,0,0,0-2.17-.4A5.21,5.21,0,0,0,52.36,15a5.46,5.46,0,0,0-1.55,4.06,5.51,5.51,0,0,0,1.49,4,4.5,4.5,0,0,0,3.41,1.51A6.48,6.48,0,0,0,59,23.83V19h4Z"/><path class="cls-1" d="M41.16,14.46A5.3,5.3,0,0,0,38.27,14H36v6h2.68a3.54,3.54,0,0,0,2.7-1,3.43,3.43,0,0,0,.71-2.35A2.49,2.49,0,0,0,41.16,14.46Z"/></g></g></svg>