<svg xmlns="http://www.w3.org/2000/svg" viewBox="0 0 333.75 361.06"><defs><style>.cls-1{stroke:#000;stroke-miterlimit:10;stroke-width:4px;}</style></defs><title>ic-login</title><g id="Слой_2" data-name="Слой 2"><g id="Слой_1-2" data-name="Слой 1"><path class="cls-1" d="M167.31,212.11A105,105,0,0,1,62.48,107.28C62.48,49.49,109.52,2,167.31,2A105,105,0,0,1,272.14,106.83C272.14,164.62,225.1,212.11,167.31,212.11Zm0-174.27a69.5,69.5,0,0,0-69.44,69.44c0,38.53,31.36,69,69.44,69a69.5,69.5,0,0,0,69.44-69.44C236.75,68.3,205.39,37.84,167.31,37.84Z"/><path class="cls-1" d="M314.7,359.06a18,18,0,0,1-17.92-17.92,129.47,129.47,0,1,0-258.94,0,17.92,17.92,0,1,1-35.84,0c0-90.94,73.92-164.86,164.86-164.86s164.86,73.92,164.86,164.86A17,17,0,0,1,314.7,359.06Z"/></g></g></svg>